<?xml version="1.0" encoding="utf-8"?>
<!-- Generator: Adobe Illustrator 24.0.3, SVG Export Plug-In . SVG Version: 6.00 Build 0)  -->
<svg version="1.1" id="Consultants__x0D_Network" xmlns="http://www.w3.org/2000/svg" xmlns:xlink="http://www.w3.org/1999/xlink"
	 x="0px" y="0px" viewBox="0 0 205.81 66.98" style="enable-background:new 0 0 205.81 66.98;" xml:space="preserve">
<style type="text/css">
	.st0{fill:#FFFFFF;}
</style>
<g>
	<g id="XMLID_314_">
		<path id="XMLID_315_" class="st0" d="M53.52,47.66c-0.08,0.22-1.33,4.53-4.38,8.98c-2.63,3.85-5.36,7.69-9.67,7.76
			c-4.23,0.08-5.59-2.51-10.42-2.51c-4.84,0-6.35,2.43-10.35,2.59c-4.15,0.16-7.32-4.16-9.97-8c-5.43-7.84-9.57-22.16-4-31.82
			c2.76-4.8,7.7-7.84,13.06-7.92c4.08-0.08,7.93,2.74,10.43,2.74c2.49,0,7.17-3.39,12.09-2.89c2.06,0.09,7.84,0.83,11.55,6.26
			c-0.29,0.19-6.9,4.03-6.83,12.02C45.13,44.44,53.43,47.62,53.52,47.66z M37.09,11.41c2.21-2.67,3.69-6.39,3.29-10.08
			c-3.18,0.12-7.03,2.12-9.3,4.79c-2.04,2.36-3.84,6.14-3.35,9.77C31.27,16.16,34.89,14.08,37.09,11.41z"/>
	</g>
	<g>
		<path class="st0" d="M70.3,25.44c0-5.69,3.21-9.28,8.23-9.28c4.07,0,7.15,2.5,7.62,6.25h-2.76c-0.5-2.3-2.42-3.81-4.86-3.81
			c-3.26,0-5.38,2.68-5.38,6.84c0,4.2,2.09,6.85,5.39,6.85c2.5,0,4.28-1.28,4.84-3.45h2.78c-0.68,3.71-3.5,5.89-7.63,5.89
			C73.49,34.73,70.3,31.17,70.3,25.44z"/>
		<path class="st0" d="M87.77,27.88c0-4.12,2.43-6.71,6.21-6.71c3.8,0,6.21,2.59,6.21,6.71c0,4.13-2.4,6.71-6.21,6.71
			C90.18,34.59,87.77,32.02,87.77,27.88z M97.46,27.88c0-2.83-1.29-4.5-3.47-4.5c-2.18,0-3.47,1.68-3.47,4.5
			c0,2.84,1.29,4.5,3.47,4.5C96.17,32.38,97.46,30.72,97.46,27.88z"/>
		<path class="st0" d="M102.41,21.33h2.57v2.23h0.06c0.79-1.57,2.1-2.38,4.12-2.38c2.89,0,4.54,1.85,4.54,4.86v8.39H111v-7.87
			c0-1.97-0.91-3.06-2.8-3.06c-1.93,0-3.1,1.37-3.1,3.39v7.55h-2.69V21.33z"/>
		<path class="st0" d="M121.57,21.18c2.9,0,4.98,1.61,5.04,3.92h-2.53c-0.11-1.16-1.1-1.87-2.59-1.87c-1.46,0-2.43,0.67-2.43,1.69
			c0,0.78,0.65,1.31,2,1.64l2.2,0.51c2.64,0.63,3.64,1.61,3.64,3.52c0,2.37-2.24,3.98-5.44,3.98c-3.09,0-5.17-1.58-5.37-3.97h2.66
			c0.19,1.26,1.2,1.93,2.83,1.93c1.61,0,2.61-0.66,2.61-1.71c0-0.81-0.5-1.25-1.87-1.59L120,28.68c-2.37-0.57-3.56-1.78-3.56-3.6
			C116.44,22.76,118.52,21.18,121.57,21.18z"/>
		<path class="st0" d="M140.61,34.43h-2.58v-2.25h-0.06c-0.75,1.57-2.05,2.4-4.06,2.4c-2.85,0-4.59-1.84-4.59-4.84v-8.4h2.69v7.88
			c0,1.99,0.95,3.05,2.8,3.05c1.94,0,3.11-1.34,3.11-3.39v-7.55h2.69V34.43z"/>
		<path class="st0" d="M143.75,16.46h2.69v17.97h-2.69V16.46z"/>
		<path class="st0" d="M153.07,18.23v3.1h2.49v2.13h-2.49v7.22c0,1.12,0.5,1.64,1.59,1.64c0.27,0,0.71-0.04,0.88-0.06v2.12
			c-0.3,0.07-0.9,0.12-1.49,0.12c-2.65,0-3.69-1-3.69-3.54v-7.51h-1.91v-2.13h1.91v-3.1H153.07z"/>
		<path class="st0" d="M157.53,30.71c0-2.29,1.76-3.67,4.87-3.86l3.59-0.2v-1c0-1.46-0.96-2.28-2.59-2.28
			c-1.49,0-2.54,0.71-2.75,1.84h-2.51c0.07-2.37,2.28-4.05,5.34-4.05c3.12,0,5.19,1.71,5.19,4.28v8.98h-2.58v-2.15h-0.06
			c-0.76,1.46-2.42,2.38-4.13,2.38C159.32,34.65,157.53,33.06,157.53,30.71z M165.98,29.53v-1.01l-3.22,0.2
			c-1.61,0.1-2.52,0.8-2.52,1.92c0,1.15,0.95,1.89,2.39,1.89C164.51,32.53,165.98,31.23,165.98,29.53z"/>
		<path class="st0" d="M171.65,21.33h2.57v2.23h0.06c0.79-1.57,2.1-2.38,4.12-2.38c2.89,0,4.54,1.85,4.54,4.86v8.39h-2.7v-7.87
			c0-1.97-0.91-3.06-2.8-3.06c-1.93,0-3.1,1.37-3.1,3.39v7.55h-2.69V21.33z"/>
		<path class="st0" d="M189.14,18.23v3.1h2.49v2.13h-2.49v7.22c0,1.12,0.5,1.64,1.59,1.64c0.27,0,0.71-0.04,0.88-0.06v2.12
			c-0.3,0.07-0.9,0.12-1.49,0.12c-2.65,0-3.69-1-3.69-3.54v-7.51h-1.9v-2.13h1.9v-3.1H189.14z"/>
		<path class="st0" d="M199.11,21.18c2.9,0,4.98,1.61,5.04,3.92h-2.53c-0.11-1.16-1.1-1.87-2.59-1.87c-1.46,0-2.43,0.67-2.43,1.69
			c0,0.78,0.65,1.31,2,1.64l2.2,0.51c2.64,0.63,3.64,1.61,3.64,3.52c0,2.37-2.24,3.98-5.44,3.98c-3.09,0-5.17-1.58-5.37-3.97h2.66
			c0.19,1.26,1.2,1.93,2.83,1.93c1.61,0,2.61-0.66,2.61-1.71c0-0.81-0.5-1.25-1.87-1.59l-2.34-0.57c-2.37-0.57-3.56-1.78-3.56-3.6
			C193.98,22.76,196.06,21.18,199.11,21.18z"/>
		<path class="st0" d="M71.97,64.43V46.46h2.53l9.31,13.25h0.1V46.46h2.71v17.97h-2.52L74.8,51.2h-0.11v13.24H71.97z"/>
		<path class="st0" d="M101.23,60.58c-0.36,2.38-2.68,4.01-5.64,4.01c-3.81,0-6.18-2.55-6.18-6.65c0-4.11,2.38-6.77,6.06-6.77
			c3.62,0,5.9,2.49,5.9,6.46v0.92h-9.25v0.16c0,2.24,1.41,3.71,3.52,3.71c1.49,0,2.66-0.71,3.03-1.84H101.23z M92.14,56.67h6.55
			c-0.06-2-1.34-3.33-3.21-3.33C93.62,53.35,92.28,54.7,92.14,56.67z"/>
		<path class="st0" d="M107.33,48.23v3.1h2.49v2.13h-2.49v7.22c0,1.12,0.5,1.64,1.59,1.64c0.27,0,0.71-0.04,0.88-0.06v2.12
			c-0.3,0.08-0.9,0.12-1.49,0.12c-2.65,0-3.69-1-3.69-3.54v-7.51h-1.91v-2.13h1.91v-3.1H107.33z"/>
		<path class="st0" d="M126.1,64.43h-2.8l-2.75-9.81h-0.06l-2.73,9.81h-2.78l-3.6-13.1h2.69l2.39,10.31h0.05l2.73-10.31h2.59
			l2.74,10.31h0.06l2.39-10.31h2.66L126.1,64.43z"/>
		<path class="st0" d="M130.49,57.88c0-4.12,2.43-6.71,6.21-6.71c3.8,0,6.21,2.59,6.21,6.71c0,4.13-2.4,6.71-6.21,6.71
			C132.9,64.59,130.49,62.02,130.49,57.88z M140.18,57.88c0-2.83-1.29-4.5-3.47-4.5s-3.47,1.68-3.47,4.5c0,2.84,1.29,4.49,3.47,4.49
			S140.18,60.72,140.18,57.88z"/>
		<path class="st0" d="M145.38,51.33h2.57v2.23h0.06c0.41-1.48,1.61-2.37,3.15-2.37c0.39,0,0.71,0.05,0.92,0.1v2.51
			c-0.21-0.09-0.68-0.16-1.21-0.16c-1.73,0-2.8,1.17-2.8,3.01v7.77h-2.69V51.33z"/>
		<path class="st0" d="M162.24,51.33h3.16l-5.43,5.64l5.64,7.46h-3.13l-4.44-5.81l-1.12,1.11v4.71h-2.69V46.46h2.69v10.48h0.03
			L162.24,51.33z"/>
	</g>
</g>
</svg>
