<?xml version="1.0" encoding="UTF-8"?>
<svg width="146px" height="146px" viewBox="0 0 146 146" version="1.1" xmlns="http://www.w3.org/2000/svg" xmlns:xlink="http://www.w3.org/1999/xlink">
    <title>Group 9</title>
    <g id="Home-Page---FInal" stroke="none" stroke-width="1" fill="none" fill-rule="evenodd">
        <g id="Desktop-view" transform="translate(-966.000000, -2322.000000)">
            <g id="why-section" transform="translate(268.000000, 2238.000000)">
                <g id="Group-9" transform="translate(698.000000, 84.000000)">
                    <circle id="Oval" stroke="#015FAF" stroke-width="2" cx="73" cy="73" r="72"></circle>
                    <g id="Group" transform="translate(46.000000, 41.000000)" fill="#015FAF" fill-rule="nonzero">
                        <path d="M37.3690458,10.1639063 C41.4250297,5.62163688 41.0536132,1.48597844 40.9346439,0 C37.3542472,0.196323299 33.2091814,2.29920047 30.8470597,4.89274899 C28.2471445,7.66851948 26.7169377,11.1032189 27.0436681,14.9724581 C30.921343,15.2528417 34.4571988,13.3743536 37.3690458,10.1639063 Z" id="Path"></path>
                        <path d="M39.2804838,64.9973372 C46.2529305,64.8966785 52.2497081,53.1373091 54,47.8469055 C44.6461028,43.4336498 45.1482277,34.9086932 45.1482277,34.6356373 C45.1195068,29.3596938 47.5009574,25.3775714 52.3214402,22.4449942 C49.6243404,18.5778501 45.5498996,16.4502611 40.1699902,16.0333069 C35.0770093,15.6308129 29.5106244,19.0091239 27.473404,19.0091239 C25.3214402,19.0091239 20.386214,16.1770649 16.5126792,16.1770649 C8.50740205,16.3065031 0,22.5742921 0,35.3256473 C0,39.0920867 0.688646354,42.9831429 2.06594125,46.9988181 C3.90225564,52.2747616 10.530332,65.212974 17.4451968,64.9973372 C21.060524,64.9109982 23.6141596,62.4240143 28.3198991,62.4240143 C32.8820343,62.4240143 35.2491944,64.9973372 39.2804838,64.9973372 Z" id="Path"></path>
                    </g>
                </g>
            </g>
        </g>
    </g>
</svg>