<?xml version="1.0" encoding="UTF-8"?>
<svg width="146px" height="146px" viewBox="0 0 146 146" version="1.1" xmlns="http://www.w3.org/2000/svg" xmlns:xlink="http://www.w3.org/1999/xlink">
    <title>Group 8</title>
    <g id="Home-Page---FInal" stroke="none" stroke-width="1" fill="none" fill-rule="evenodd">
        <g id="Desktop-view" transform="translate(-646.000000, -2322.000000)">
            <g id="why-section" transform="translate(268.000000, 2238.000000)">
                <g id="Group-8" transform="translate(378.000000, 84.000000)">
                    <circle id="Oval-Copy-3" stroke="#015FAF" stroke-width="2" cx="73" cy="73" r="72"></circle>
                    <g id="Group-2" transform="translate(33.000000, 40.000000)" fill-rule="nonzero">
                        <path d="M7.05888625,0 L72.9411138,0 C76.8395871,0 80,3.16552744 80,7.0703098 L80,49.4919016 C80,53.3966839 76.8395871,56.5622114 72.9411138,56.5622114 L35.2941647,56.5622114 L35.2941647,64.3354674 C35.2941647,65.8155791 33.5077864,66.5567029 32.4629337,65.5098923 L23.5294431,56.5622114 L7.05888625,56.5622114 C3.16041288,56.5622114 0,53.3966839 0,49.4919016 L0,7.0703098 C0,3.16552744 3.16041288,0 7.05888625,0 Z" id="Path" fill="#015FAF"></path>
                        <path d="M34.1177725,42 C33.5156495,42 32.9132599,41.772152 32.4540045,41.3167202 L20.6892829,29.6499489 C19.770239,28.7388211 19.770239,27.2615093 20.6892829,26.3503815 C21.6080603,25.4392537 23.097775,25.4392537 24.0165524,26.3503815 L34.1177725,36.3669726 L55.9834476,14.6833459 C56.902225,13.772218 58.3919397,13.772218 59.3107171,14.6833459 C60.229761,15.5944737 60.229761,17.0717854 59.3107171,17.9829133 L35.7812739,41.3164559 C35.3222851,41.772152 34.7198955,42 34.1177725,42 Z" id="Path" fill="#FFFFFF"></path>
                    </g>
                </g>
            </g>
        </g>
    </g>
</svg>