<?xml version="1.0" encoding="UTF-8"?>
<svg width="90px" height="78px" viewBox="0 0 90 78" version="1.1" xmlns="http://www.w3.org/2000/svg" xmlns:xlink="http://www.w3.org/1999/xlink">
    <title>Group 6</title>
    <g id="Home-Page---FInal" stroke="none" stroke-width="1" fill="none" fill-rule="evenodd">
        <g id="Desktop-view" transform="translate(-382.000000, -2767.000000)">
            <g id="why-section" transform="translate(268.000000, 2238.000000)">
                <g id="Group-6" transform="translate(114.000000, 529.000000)">
                    <g id="imac" transform="translate(45.000000, 38.500000) rotate(-360.000000) translate(-45.000000, -38.500000) ">
                        <rect id="Rectangle" stroke="#FFFFFF" stroke-width="3" x="1.5" y="1.5" width="87" height="63" rx="9"></rect>
                        <line x1="2" y1="51.5" x2="89" y2="51.5" id="Path" stroke="#FFFFFF" stroke-width="3"></line>
                        <line x1="32.3160127" y1="76.5" x2="57.738235" y2="76.5" id="Path-Copy" stroke="#FFFFFF" stroke-width="3" stroke-linecap="round"></line>
                        <line x1="37" y1="64.2857143" x2="36.5" y2="76" id="Path-Copy-2" stroke="#FFFFFF" stroke-width="3"></line>
                        <line x1="53" y1="64.2857143" x2="52.5" y2="76" id="Path-Copy-3" stroke="#FFFFFF" stroke-width="3"></line>
                        <circle id="Oval" fill="#FFFFFF" cx="45.5" cy="57.5" r="2.5"></circle>
                    </g>
                    <g id="Recycling_symbol" transform="translate(26.000000, 9.000000)" fill="#FFFFFF" fill-rule="nonzero">
                        <path d="M6.03502087,26.1755983 C5.62983125,26.8815577 5.30732474,27.9437535 5.30732474,28.613039 C5.30732474,28.7684193 5.30732474,28.966048 5.34700296,29.2401934 L0.282828283,20.7909192 C0.12072824,20.5167739 0,20.1234528 0,19.7690941 C0,19.414266 0.12072824,18.9829213 0.282828283,18.7083066 L2.71402649,14.5815743 L0,13.0893835 L8.83179096,12.9307758 L13.1252646,20.4365605 L10.3715599,18.9040576 L6.03502087,26.1755983 Z M9.92499849,2.36045469 C10.6940664,1.06219581 11.9510071,0.354828089 13.4891429,0.354828089 C15.1512732,0.354828089 16.4479526,1.10250785 17.3790601,2.63319174 L18.756729,4.87306239 L13.9753221,12.8922828 L6.23843223,8.52942883 L9.92499849,2.36045469 Z M10.4905946,32.9740739 C8.1817577,32.9740739 6.27811045,31.1269963 6.27811045,28.8871843 C6.27811045,28.2582109 6.56257183,27.1960738 6.96776145,26.5286073 L8.26274723,24.2887367 L17.8652392,24.2887367 L17.8652392,32.9740739 L10.4905946,32.9740739 L10.4905946,32.9740739 Z M18.1894998,2.12298334 C17.5824714,1.10250785 16.7720922,0.393321098 15.7996129,0 L25.7642896,0 C26.6557189,0 27.3437368,0.354828089 27.75062,1.02364412 L30.2215569,5.11047507 L32.8944535,3.57656386 L28.5990443,11.0452052 L19.8102583,10.9250905 L22.5242848,9.43289966 L18.1894998,2.12298334 Z M33.5444263,24.3675417 C34.7583621,24.3675417 35.7722131,24.0530844 36.6223311,23.4254605 L31.5978346,31.9131691 C31.192645,32.5806355 30.4649489,32.9739566 29.614589,32.9739566 L24.8728603,32.9739566 L24.8728603,36 L20.3362366,28.6514733 L24.8728603,21.3010689 L24.8728603,24.3674831 L33.5444263,24.3674831 L33.5444263,24.3675417 Z M37.4310772,17.2931604 C37.7965886,17.9221338 38,18.5896002 38,19.2973787 C38,20.7125249 37.0671989,22.2060654 35.7722131,22.9120835 C35.1636122,23.2284186 34.3118006,23.4255192 33.4633763,23.4255192 L30.7873949,23.4255192 L26.0090728,15.4062988 L33.7462046,11.1223085 L37.4310772,17.2931604 Z" id="Shape"></path>
                    </g>
                </g>
            </g>
        </g>
    </g>
</svg>